<?xml version="1.0" encoding="UTF-8"?>
<svg width="3668px" height="1000px" viewBox="0 0 3668 1000" version="1.1" xmlns="http://www.w3.org/2000/svg" xmlns:xlink="http://www.w3.org/1999/xlink">
    <!-- Generator: Sketch 55.2 (78181) - https://sketchapp.com -->
    <title>Group 4</title>
    <desc>Created with Sketch.</desc>
    <defs>
        <linearGradient x1="18.9375238%" y1="-103.592148%" x2="160.521224%" y2="100%" id="linearGradient-1">
            <stop stop-color="#1CFE95" offset="0%"></stop>
            <stop stop-color="#00D3DC" offset="100%"></stop>
        </linearGradient>
        <linearGradient x1="-601.597884%" y1="-30.4077496%" x2="2368.40487%" y2="76.1757358%" id="linearGradient-2">
            <stop stop-color="#1CFE95" offset="0%"></stop>
            <stop stop-color="#00D3DC" offset="100%"></stop>
        </linearGradient>
        <linearGradient x1="-601.597884%" y1="-60.2685391%" x2="2368.40487%" y2="85.8965419%" id="linearGradient-3">
            <stop stop-color="#1CFE95" offset="0%"></stop>
            <stop stop-color="#00D3DC" offset="100%"></stop>
        </linearGradient>
        <linearGradient x1="-601.597884%" y1="-43.3605885%" x2="2368.40487%" y2="80.3923703%" id="linearGradient-4">
            <stop stop-color="#1CFE95" offset="0%"></stop>
            <stop stop-color="#00D3DC" offset="100%"></stop>
        </linearGradient>
        <linearGradient x1="-601.597884%" y1="-52.7135023%" x2="2368.40487%" y2="83.4370943%" id="linearGradient-5">
            <stop stop-color="#1CFE95" offset="0%"></stop>
            <stop stop-color="#00D3DC" offset="100%"></stop>
        </linearGradient>
        <linearGradient x1="-80.3849979%" y1="0%" x2="247.047306%" y2="206.148387%" id="linearGradient-6">
            <stop stop-color="#1CFE95" offset="0%"></stop>
            <stop stop-color="#00D3DC" offset="100%"></stop>
        </linearGradient>
        <linearGradient x1="-79.9640619%" y1="0%" x2="246.411157%" y2="206.148387%" id="linearGradient-7">
            <stop stop-color="#1CFE95" offset="0%"></stop>
            <stop stop-color="#00D3DC" offset="100%"></stop>
        </linearGradient>
    </defs>
    <g id="Page-1" stroke="none" stroke-width="1" fill="none" fill-rule="evenodd">
        <g id="Artboard" transform="translate(-8750.000000, -2890.000000)" fill-rule="nonzero">
            <g id="Group-4" transform="translate(8750.000000, 2890.000000)">
                <g id="Group" transform="translate(1300.000000, 276.000000)">
                    <path d="M86.1799488,0.674821485 C95.9586959,0.674821485 100.67947,5.39857188 100.67947,15.1834834 L100.67947,446.394412 C100.67947,456.179324 95.9586959,460.903074 86.1799488,460.903074 L15.368332,460.903074 C5.25238678,460.903074 0.194414154,456.179324 0.194414154,446.394412 L0.194414154,15.1834834 C0.194414154,5.39857188 5.25238678,0.674821485 15.368332,0.674821485 L86.1799488,0.674821485 Z" id="Shape" fill="url(#linearGradient-1)"></path>
                    <path d="M522.177189,99.8735798 C551.513431,99.8735798 576.128897,102.235455 596.360788,107.296616 C616.592678,112.357777 632.440993,120.118224 644.580127,130.915368 C656.719261,141.712512 665.149216,155.546352 670.544386,172.416889 C675.939557,189.287427 678.299944,209.532071 678.299944,233.150823 L678.299944,327.625831 C678.299944,351.244583 675.602359,371.489228 670.544386,388.359765 C665.149216,405.230302 656.719261,419.064142 644.580127,429.861286 C632.440993,440.65843 616.25548,448.418877 596.360788,453.142627 C576.128897,457.866378 551.513431,460.228253 522.177189,460.228253 L336.380995,460.228253 C306.707555,460.228253 281.75489,457.866378 261.860198,453.142627 C241.965506,448.418877 225.779993,440.65843 213.978057,429.861286 C201.838923,419.064142 193.408969,405.230302 188.013798,388.359765 C182.955825,371.489228 180.25824,351.244583 180.25824,327.625831 L180.25824,233.150823 C180.25824,209.532071 182.955825,189.287427 188.013798,172.416889 C193.408969,155.546352 201.838923,141.712512 213.978057,130.915368 C226.117191,120.118224 241.965506,112.357777 261.860198,107.296616 C281.75489,102.235455 306.707555,99.8735798 336.380995,99.8735798 L522.177189,99.8735798 Z M273.999332,311.430115 C273.999332,325.601367 275.010927,337.073332 277.371314,346.183422 C279.731701,355.293512 283.440881,362.716548 288.836052,368.11512 C294.231223,373.513692 301.649583,377.562621 310.753933,379.924496 C319.858284,382.286371 331.66022,383.636014 345.485345,383.636014 L513.072839,383.636014 C527.57236,383.636014 539.374296,382.623782 548.478647,379.924496 C557.582998,377.562621 565.001358,373.513692 570.396528,368.11512 C575.791699,362.716548 579.838077,355.293512 581.861266,346.183422 C584.221653,337.073332 585.233248,325.263956 585.233248,311.430115 L585.233248,249.009128 C585.233248,235.512698 584.221653,224.040733 581.861266,214.930643 C579.500879,205.820553 575.791699,198.397517 570.396528,192.661534 C565.001358,186.925551 557.582998,182.876623 548.478647,180.852158 C539.374296,178.827694 527.57236,177.478051 513.072839,177.478051 L345.485345,177.478051 C331.323022,177.478051 319.858284,178.490283 310.753933,180.852158 C301.649583,183.214033 294.231223,186.925551 288.836052,192.661534 C283.440881,198.397517 279.394503,205.820553 277.371314,214.930643 C275.010927,224.040733 273.999332,235.512698 273.999332,249.009128 L273.999332,311.430115 Z" id="Shape" fill="url(#linearGradient-2)"></path>
                    <path d="M1257.94361,0.674821485 C1268.05955,0.674821485 1273.11753,5.39857188 1273.11753,15.1834834 L1273.11753,79.6289353 C1273.11753,89.7512575 1268.05955,94.8124187 1257.94361,94.8124187 L1051.57832,94.8124187 L1051.57832,446.394412 C1051.57832,456.179324 1046.85755,460.903074 1037.0788,460.903074 L965.59279,460.903074 C955.814043,460.903074 951.093268,456.179324 951.093268,446.394412 L951.093268,94.4750079 L744.727985,94.4750079 C734.61204,94.4750079 729.554067,89.4138468 729.554067,79.2915245 L729.554067,14.8460727 C729.554067,5.06116114 734.61204,0.337410743 744.727985,0.337410743 L1257.94361,0.337410743 L1257.94361,0.674821485 Z" id="Shape" fill="url(#linearGradient-3)"></path>
                    <path d="M1650.77948,99.8735798 C1673.03456,99.8735798 1691.58046,101.560634 1706.41718,105.272152 C1721.2539,108.98367 1732.71864,115.057063 1741.14859,123.829743 C1749.57855,132.265011 1755.64811,143.399566 1759.35729,157.233406 C1762.72928,171.067247 1764.75246,187.937784 1764.75246,207.507607 L1764.75246,269.928594 C1764.75246,284.099845 1761.71768,293.547346 1755.64811,299.283329 C1749.57855,304.681901 1740.137,307.381187 1727.32347,307.381187 L1395.52046,307.381187 L1395.52046,323.239491 C1395.52046,343.821547 1400.57844,358.667619 1410.35718,367.777709 C1420.13593,376.8878 1439.35623,381.61155 1467.68087,381.61155 L1741.48579,381.61155 C1749.24135,381.61155 1753.28773,385.660479 1753.28773,393.420926 L1753.28773,448.756288 C1753.28773,456.516735 1749.24135,460.565664 1741.48579,460.565664 L1458.23932,460.565664 C1428.56588,460.565664 1403.61322,458.203788 1383.71853,453.480038 C1363.82383,448.756288 1347.97552,440.995841 1335.83639,430.198697 C1323.69725,419.401553 1315.2673,405.567713 1309.87213,388.697175 C1304.47696,371.826638 1302.11657,351.581994 1302.11657,327.963242 L1302.11657,233.488234 C1302.11657,209.869482 1304.81415,189.624837 1309.87213,172.7543 C1315.2673,155.883763 1323.69725,142.049923 1335.83639,131.252779 C1347.97552,120.455635 1363.82383,112.695188 1383.71853,107.634027 C1403.61322,102.572866 1428.56588,100.210991 1458.23932,100.210991 L1650.77948,100.210991 L1650.77948,99.8735798 Z M1395.18326,249.009128 L1661.23262,249.009128 C1668.65098,249.009128 1672.36016,245.29761 1672.36016,237.874574 L1672.36016,210.206893 C1672.36016,196.710463 1669.66258,186.925551 1663.93021,181.189569 C1658.19784,175.453586 1647.7447,172.7543 1632.57078,172.7543 L1467.68087,172.7543 C1439.35623,172.7543 1420.13593,177.14064 1410.35718,186.25073 C1400.57844,195.36082 1395.52046,210.206893 1395.52046,231.126359 L1395.52046,249.009128 L1395.18326,249.009128 Z" id="Shape" fill="url(#linearGradient-4)"></path>
                    <path d="M2348.10531,0.674821485 C2354.17487,0.674821485 2357.54686,2.69928594 2358.22125,7.0856256 C2358.89565,11.1345545 2357.54686,14.8460727 2354.51207,17.8827694 L2152.86756,222.353679 L2363.61642,443.695127 C2366.65121,446.731823 2368,450.443341 2367.3256,454.49227 C2366.65121,458.541199 2363.27923,460.903074 2357.20966,460.903074 L2267.17775,460.903074 C2261.78257,460.903074 2257.7362,460.228253 2254.70141,458.87861 C2251.66663,457.528967 2248.63185,455.167092 2246.27146,451.792984 L2084.07914,281.73797 L1921.21242,451.792984 C1918.17763,455.167092 1915.14285,457.866378 1912.44527,458.87861 C1909.74768,460.228253 1905.3641,460.903074 1899.63173,460.903074 L1814.3206,460.903074 C1808.58823,460.903074 1805.55344,458.87861 1804.87905,454.49227 C1804.20465,450.443341 1805.55344,446.731823 1808.58823,443.695127 L2024.73226,218.979572 L1829.83171,17.8827694 C1827.13413,14.8460727 1826.12253,11.1345545 1826.45973,7.0856256 C1826.79693,3.03669668 1830.16891,0.674821485 1836.23848,0.674821485 L1926.27039,0.674821485 C1931.66556,0.674821485 1935.71194,1.34964297 1938.74672,3.03669668 C1941.78151,4.38633965 1944.81629,6.74821485 1947.17668,9.78491154 L2090.4859,162.294567 L2242.22508,9.78491154 C2244.92267,6.74821485 2247.62025,4.38633965 2250.65504,3.03669668 C2253.68982,1.34964297 2257.7362,0.674821485 2263.13137,0.674821485 L2348.10531,0.674821485 Z" id="Shape" fill="url(#linearGradient-5)"></path>
                </g>
                <g id="Group">
                    <polygon id="Shape" fill="url(#linearGradient-6)" points="639.668849 0.674243478 639.668849 241.042043 848.285823 121.026704"></polygon>
                    <polygon id="Shape" fill="url(#linearGradient-6)" opacity="0.9" points="848.285823 121.026704 848.285823 361.394504 1056.9028 241.042043"></polygon>
                    <polygon id="Shape" fill="url(#linearGradient-6)" opacity="0.8" points="639.668849 241.042043 639.668849 481.409843 848.285823 361.394504"></polygon>
                    <polygon id="Shape" fill="url(#linearGradient-6)" opacity="0.8" points="848.285823 361.394504 848.285823 601.762304 1056.9028 481.409843"></polygon>
                    <polygon id="Shape" fill="url(#linearGradient-6)" opacity="0.8" points="639.668849 481.409843 639.668849 721.777643 848.285823 601.762304"></polygon>
                    <polygon id="Shape" fill="url(#linearGradient-6)" points="848.285823 601.762304 848.285823 842.130104 1056.9028 721.777643"></polygon>
                    <polygon id="Shape" fill="url(#linearGradient-6)" opacity="0.4" points="100.432728 232.951122 100.432728 473.318921 309.049702 352.966461"></polygon>
                    <polygon id="Shape" fill="url(#linearGradient-7)" opacity="0.2" points="363.647359 322.288382 363.647359 562.656182 571.927311 442.640843"></polygon>
                    <polygon id="Shape" fill="url(#linearGradient-6)" opacity="0.3" points="208.953997 474.330287 208.953997 714.698086 417.570971 594.345626"></polygon>
                    <polygon id="Shape" fill="url(#linearGradient-7)" opacity="0.9" points="346.459208 655.701782 346.459208 896.069582 554.73916 775.717121"></polygon>
                    <polygon id="Shape" fill="url(#linearGradient-7)" opacity="0.7" points="637.983736 759.198156 637.983736 999.565956 846.263687 879.213495"></polygon>
                    <polygon id="Shape" fill="url(#linearGradient-7)" opacity="0.9" points="398.360684 203.62153 398.360684 443.98933 606.640636 323.973991"></polygon>
                    <polygon id="Shape" fill="url(#linearGradient-6)" opacity="0.8" points="639.668849 0.674243478 639.668849 241.042043 431.051874 121.026704"></polygon>
                    <polygon id="Shape" fill="url(#linearGradient-6)" opacity="0.6" points="398.360684 102.82213 398.360684 343.18993 189.74371 222.837469"></polygon>
                    <polygon id="Shape" fill="url(#linearGradient-6)" opacity="0.6" points="606.977659 221.826104 606.977659 462.193904 398.360684 341.841443"></polygon>
                    <polygon id="Shape" fill="url(#linearGradient-6)" opacity="0.95" points="362.636291 322.288382 362.636291 562.656182 154.019317 442.640843"></polygon>
                    <polygon id="Shape" fill="url(#linearGradient-7)" opacity="0.6" points="639.668849 481.409843 639.668849 721.777643 431.388897 601.762304"></polygon>
                    <polygon id="Shape" fill="url(#linearGradient-6)" opacity="0.55" points="208.953997 537.372052 208.953997 777.739852 0.337022576 657.387391"></polygon>
                    <polygon id="Shape" fill="url(#linearGradient-6)" points="1056.9028 241.042043 1056.9028 481.409843 848.285823 361.394504"></polygon>
                    <polygon id="Shape" fill="url(#linearGradient-6)" opacity="0.95" points="848.285823 361.394504 848.285823 601.762304 639.668849 481.409843"></polygon>
                    <polygon id="Shape" fill="url(#linearGradient-6)" opacity="0.9" points="1056.9028 481.409843 1056.9028 721.777643 848.285823 601.762304"></polygon>
                    <polygon id="Shape" fill="url(#linearGradient-6)" opacity="0.7" points="848.285823 601.762304 848.285823 842.130104 639.668849 721.777643"></polygon>
                    <polygon id="Shape" fill="url(#linearGradient-6)" opacity="0.4" points="593.496756 701.88746 593.496756 942.25526 384.879781 822.239921"></polygon>
                    <polygon id="Shape" fill="url(#linearGradient-6)" points="848.285823 121.026704 848.285823 361.394504 639.668849 241.042043"></polygon>
                </g>
            </g>
        </g>
    </g>
</svg>