<?xml version="1.0" encoding="UTF-8"?>
<svg width="3643px" height="999px" viewBox="0 0 3643 999" version="1.1" xmlns="http://www.w3.org/2000/svg" xmlns:xlink="http://www.w3.org/1999/xlink">
    <!-- Generator: Sketch 55.2 (78181) - https://sketchapp.com -->
    <title>Group 11</title>
    <desc>Created with Sketch.</desc>
    <g id="Page-1" stroke="none" stroke-width="1" fill="none" fill-rule="evenodd">
        <g id="Artboard" transform="translate(-8901.000000, -5437.000000)" fill="#FFFFFF" fill-rule="nonzero">
            <g id="Group-11" transform="translate(8901.000000, 5437.000000)">
                <g id="Group" transform="translate(1276.094276, 269.360269)">
                    <path d="M88.5521886,0.673400673 C98.3164983,0.673400673 103.030303,5.38720539 103.030303,15.1515152 L103.030303,445.454545 C103.030303,455.218855 98.3164983,459.93266 88.5521886,459.93266 L17.8451178,459.93266 C7.74410774,459.93266 2.69360269,455.218855 2.69360269,445.454545 L2.69360269,15.1515152 C2.69360269,5.38720539 7.74410774,0.673400673 17.8451178,0.673400673 L88.5521886,0.673400673 Z" id="Shape"></path>
                    <path d="M524.242424,99.6632997 C553.535354,99.6632997 578.114478,102.020202 598.316498,107.070707 C618.518519,112.121212 634.343434,119.86532 646.464646,130.639731 C658.585859,141.414141 667.003367,155.218855 672.390572,172.053872 C677.777778,188.888889 680.13468,209.090909 680.13468,232.659933 L680.13468,326.936027 C680.13468,350.505051 677.441077,370.707071 672.390572,387.542088 C667.003367,404.377104 658.585859,418.181818 646.464646,428.956229 C634.343434,439.73064 618.181818,447.474747 598.316498,452.188552 C578.114478,456.902357 553.535354,459.259259 524.242424,459.259259 L338.720539,459.259259 C309.090909,459.259259 284.175084,456.902357 264.309764,452.188552 C244.444444,447.474747 228.282828,439.73064 216.498316,428.956229 C204.377104,418.181818 195.959596,404.377104 190.572391,387.542088 C185.521886,370.707071 182.828283,350.505051 182.828283,326.936027 L182.828283,232.659933 C182.828283,209.090909 185.521886,188.888889 190.572391,172.053872 C195.959596,155.218855 204.377104,141.414141 216.498316,130.639731 C228.619529,119.86532 244.444444,112.121212 264.309764,107.070707 C284.175084,102.020202 309.090909,99.6632997 338.720539,99.6632997 L524.242424,99.6632997 Z M276.094276,310.774411 C276.094276,324.915825 277.104377,336.363636 279.461279,345.454545 C281.818182,354.545455 285.521886,361.952862 290.909091,367.340067 C296.296296,372.727273 303.703704,376.767677 312.794613,379.124579 C321.885522,381.481481 333.670034,382.828283 347.474747,382.828283 L514.814815,382.828283 C529.292929,382.828283 541.077441,381.818182 550.16835,379.124579 C559.259259,376.767677 566.666667,372.727273 572.053872,367.340067 C577.441077,361.952862 581.481481,354.545455 583.501684,345.454545 C585.858586,336.363636 586.868687,324.579125 586.868687,310.774411 L586.868687,248.484848 C586.868687,235.016835 585.858586,223.569024 583.501684,214.478114 C581.144781,205.387205 577.441077,197.979798 572.053872,192.255892 C566.666667,186.531987 559.259259,182.491582 550.16835,180.47138 C541.077441,178.451178 529.292929,177.104377 514.814815,177.104377 L347.474747,177.104377 C333.333333,177.104377 321.885522,178.114478 312.794613,180.47138 C303.703704,182.828283 296.296296,186.531987 290.909091,192.255892 C285.521886,197.979798 281.481481,205.387205 279.461279,214.478114 C277.104377,223.569024 276.094276,235.016835 276.094276,248.484848 L276.094276,310.774411 Z" id="Shape"></path>
                    <path d="M1258.58586,0.673400673 C1268.68687,0.673400673 1273.73737,5.38720539 1273.73737,15.1515152 L1273.73737,79.4612795 C1273.73737,89.5622896 1268.68687,94.6127946 1258.58586,94.6127946 L1052.52525,94.6127946 L1052.52525,445.454545 C1052.52525,455.218855 1047.81145,459.93266 1038.04714,459.93266 L966.666667,459.93266 C956.902357,459.93266 952.188552,455.218855 952.188552,445.454545 L952.188552,94.2760943 L746.127946,94.2760943 C736.026936,94.2760943 730.976431,89.2255892 730.976431,79.1245791 L730.976431,14.8148148 C730.976431,5.05050505 736.026936,0.336700337 746.127946,0.336700337 L1258.58586,0.336700337 L1258.58586,0.673400673 Z" id="Shape"></path>
                    <path d="M1650.84175,99.6632997 C1673.06397,99.6632997 1691.58249,101.346801 1706.39731,105.050505 C1721.21212,108.754209 1732.65993,114.814815 1741.07744,123.569024 C1749.49495,131.986532 1755.55556,143.097643 1759.25926,156.902357 C1762.62626,170.707071 1764.64646,187.542088 1764.64646,207.070707 L1764.64646,269.360269 C1764.64646,283.501684 1761.61616,292.929293 1755.55556,298.653199 C1749.49495,304.040404 1740.06734,306.734007 1727.27273,306.734007 L1395.9596,306.734007 L1395.9596,322.558923 C1395.9596,343.097643 1401.0101,357.912458 1410.77441,367.003367 C1420.53872,376.094276 1439.73064,380.808081 1468.01347,380.808081 L1741.41414,380.808081 C1749.15825,380.808081 1753.19865,384.848485 1753.19865,392.592593 L1753.19865,447.811448 C1753.19865,455.555556 1749.15825,459.59596 1741.41414,459.59596 L1458.58586,459.59596 C1428.95623,459.59596 1404.0404,457.239057 1384.17508,452.525253 C1364.30976,447.811448 1348.48485,440.06734 1336.36364,429.292929 C1324.24242,418.518519 1315.82492,404.713805 1310.43771,387.878788 C1305.05051,371.043771 1302.6936,350.841751 1302.6936,327.272727 L1302.6936,232.996633 C1302.6936,209.427609 1305.38721,189.225589 1310.43771,172.390572 C1315.82492,155.555556 1324.24242,141.750842 1336.36364,130.976431 C1348.48485,120.20202 1364.30976,112.457912 1384.17508,107.407407 C1404.0404,102.356902 1428.95623,100 1458.58586,100 L1650.84175,100 L1650.84175,99.6632997 Z M1395.6229,248.484848 L1661.27946,248.484848 C1668.68687,248.484848 1672.39057,244.781145 1672.39057,237.373737 L1672.39057,209.76431 C1672.39057,196.296296 1669.69697,186.531987 1663.97306,180.808081 C1658.24916,175.084175 1647.81145,172.390572 1632.65993,172.390572 L1468.01347,172.390572 C1439.73064,172.390572 1420.53872,176.767677 1410.77441,185.858586 C1401.0101,194.949495 1395.9596,209.76431 1395.9596,230.639731 L1395.9596,248.484848 L1395.6229,248.484848 Z" id="Shape"></path>
                    <path d="M2347.47475,0.673400673 C2353.53535,0.673400673 2356.90236,2.69360269 2357.57576,7.07070707 C2358.24916,11.1111111 2356.90236,14.8148148 2353.87205,17.8451178 L2152.52525,221.885522 L2362.96296,442.760943 C2365.99327,445.791246 2367.34007,449.494949 2366.66667,453.535354 C2365.99327,457.575758 2362.62626,459.93266 2356.56566,459.93266 L2266.66667,459.93266 C2261.27946,459.93266 2257.23906,459.259259 2254.20875,457.912458 C2251.17845,456.565657 2248.14815,454.208754 2245.79125,450.841751 L2083.83838,281.144781 L1921.21212,450.841751 C1918.18182,454.208754 1915.15152,456.902357 1912.45791,457.912458 C1909.76431,459.259259 1905.38721,459.93266 1899.6633,459.93266 L1814.47811,459.93266 C1808.75421,459.93266 1805.72391,457.912458 1805.05051,453.535354 C1804.3771,449.494949 1805.72391,445.791246 1808.75421,442.760943 L2024.57912,218.518519 L1829.96633,17.8451178 C1827.27273,14.8148148 1826.26263,11.1111111 1826.59933,7.07070707 C1826.93603,3.03030303 1830.30303,0.673400673 1836.36364,0.673400673 L1926.26263,0.673400673 C1931.64983,0.673400673 1935.69024,1.34680135 1938.72054,3.03030303 C1941.75084,4.37710438 1944.78114,6.73400673 1947.13805,9.76430976 L2090.23569,161.952862 L2241.75084,9.76430976 C2244.44444,6.73400673 2247.13805,4.37710438 2250.16835,3.03030303 C2253.19865,1.34680135 2257.23906,0.673400673 2262.62626,0.673400673 L2347.47475,0.673400673 Z" id="Shape"></path>
                </g>
                <g id="Group">
                    <polygon id="Shape" points="639.057239 0.673400673 639.057239 240.740741 847.474747 120.875421"></polygon>
                    <polygon id="Shape" opacity="0.9" points="847.474747 120.875421 847.474747 360.942761 1055.89226 240.740741"></polygon>
                    <polygon id="Shape" opacity="0.8" points="639.057239 240.740741 639.057239 480.808081 847.474747 360.942761"></polygon>
                    <polygon id="Shape" opacity="0.8" points="847.474747 360.942761 847.474747 601.010101 1055.89226 480.808081"></polygon>
                    <polygon id="Shape" opacity="0.8" points="639.057239 480.808081 639.057239 720.875421 847.474747 601.010101"></polygon>
                    <polygon id="Shape" points="847.474747 601.010101 847.474747 841.077441 1055.89226 720.875421"></polygon>
                    <polygon id="Shape" opacity="0.5" points="100.3367 232.659933 100.3367 472.727273 308.754209 352.525253"></polygon>
                    <polygon id="Shape" opacity="0.2" points="363.299663 321.885522 363.299663 561.952862 571.380471 442.087542"></polygon>
                    <polygon id="Shape" opacity="0.4" points="208.754209 473.737374 208.754209 713.804714 417.171717 593.602694"></polygon>
                    <polygon id="Shape" opacity="0.9" points="346.127946 654.882155 346.127946 894.949495 554.208754 774.747475"></polygon>
                    <polygon id="Shape" opacity="0.7" points="637.373737 758.249158 637.373737 998.316498 845.454545 878.114478"></polygon>
                    <polygon id="Shape" opacity="0.9" points="397.979798 203.367003 397.979798 443.434343 606.060606 323.569024"></polygon>
                    <polygon id="Shape" opacity="0.8" points="639.057239 0.673400673 639.057239 240.740741 430.639731 120.875421"></polygon>
                    <polygon id="Shape" opacity="0.7" points="397.979798 102.693603 397.979798 342.760943 189.56229 222.558923"></polygon>
                    <polygon id="Shape" opacity="0.6" points="606.397306 221.548822 606.397306 461.616162 397.979798 341.414141"></polygon>
                    <polygon id="Shape" points="362.289562 321.885522 362.289562 561.952862 153.872054 442.087542"></polygon>
                    <polygon id="Shape" opacity="0.6" points="639.057239 480.808081 639.057239 720.875421 430.976431 601.010101"></polygon>
                    <polygon id="Shape" opacity="0.65" points="208.754209 536.700337 208.754209 776.767677 0.336700337 656.565657"></polygon>
                    <polygon id="Shape" points="1055.89226 240.740741 1055.89226 480.808081 847.474747 360.942761"></polygon>
                    <polygon id="Shape" opacity="0.95" points="847.474747 360.942761 847.474747 601.010101 639.057239 480.808081"></polygon>
                    <polygon id="Shape" opacity="0.9" points="1055.89226 480.808081 1055.89226 720.875421 847.474747 601.010101"></polygon>
                    <polygon id="Shape" opacity="0.7" points="847.474747 601.010101 847.474747 841.077441 639.057239 720.875421"></polygon>
                    <polygon id="Shape" opacity="0.4" points="592.929293 701.010101 592.929293 941.077441 384.511785 821.212121"></polygon>
                    <polygon id="Shape" points="847.474747 120.875421 847.474747 360.942761 639.057239 240.740741"></polygon>
                </g>
            </g>
        </g>
    </g>
</svg>