<?xml version="1.0" encoding="UTF-8"?>
<svg width="2350px" height="1798px" viewBox="0 0 2350 1798" version="1.1" xmlns="http://www.w3.org/2000/svg" xmlns:xlink="http://www.w3.org/1999/xlink">
    <!-- Generator: Sketch 55.2 (78181) - https://sketchapp.com -->
    <title>Group 12</title>
    <desc>Created with Sketch.</desc>
    <g id="Page-1" stroke="none" stroke-width="1" fill="none" fill-rule="evenodd">
        <g id="Artboard" transform="translate(-5069.000000, -5586.000000)" fill="#FFFFFF" fill-rule="nonzero">
            <g id="Group-12" transform="translate(5067.000000, 5586.000000)">
                <g id="Group" transform="translate(0.000000, 1338.289963)">
                    <path d="M87.9925651,3.34572491 C97.6951673,3.34572491 102.379182,8.02973978 102.379182,17.732342 L102.379182,444.981413 C102.379182,454.684015 97.6951673,459.36803 87.9925651,459.36803 L17.732342,459.36803 C7.69516729,459.36803 2.67657993,454.684015 2.67657993,444.981413 L2.67657993,17.3977695 C2.67657993,7.69516729 7.69516729,3.01115242 17.732342,3.01115242 L87.9925651,3.01115242 L87.9925651,3.34572491 Z" id="Shape"></path>
                    <path d="M520.929368,101.710037 C550.037175,101.710037 574.460967,104.052045 594.535316,109.070632 C614.609665,114.089219 630.334572,121.784387 642.379182,132.490706 C654.423792,143.197026 662.788104,156.914498 668.141264,173.643123 C673.494424,190.371747 675.836431,210.446097 675.836431,233.866171 L675.836431,327.546468 C675.836431,350.966543 673.159851,371.040892 668.141264,387.769517 C662.788104,404.498141 654.423792,418.215613 642.379182,428.921933 C630.334572,439.628253 614.275093,447.32342 594.535316,452.007435 C574.460967,456.69145 550.037175,459.033457 520.929368,459.033457 L336.579926,459.033457 C307.137546,459.033457 282.379182,456.69145 262.639405,452.007435 C242.899628,447.32342 226.840149,439.628253 215.130112,428.921933 C203.085502,418.215613 194.72119,404.498141 189.36803,387.769517 C184.349442,371.040892 181.672862,350.966543 181.672862,327.546468 L181.672862,233.866171 C181.672862,210.446097 184.349442,190.371747 189.36803,173.643123 C194.72119,156.914498 203.085502,143.197026 215.130112,132.490706 C227.174721,121.784387 242.899628,114.089219 262.639405,109.070632 C282.379182,104.052045 307.137546,101.710037 336.579926,101.710037 L520.929368,101.710037 Z M274.349442,311.486989 C274.349442,325.539033 275.35316,336.914498 277.695167,345.947955 C280.037175,354.981413 283.717472,362.342007 289.070632,367.695167 C294.423792,373.048327 301.784387,377.063197 310.817844,379.405204 C319.851301,381.747212 331.561338,383.085502 345.27881,383.085502 L511.561338,383.085502 C525.947955,383.085502 537.657993,382.081784 546.69145,379.405204 C555.724907,377.063197 563.085502,373.048327 568.438662,367.695167 C573.791822,362.342007 577.806691,354.981413 579.814126,345.947955 C581.821561,336.914498 583.159851,325.204461 583.159851,311.486989 L583.159851,249.591078 C583.159851,236.208178 582.156134,224.832714 579.814126,215.799257 C577.472119,206.765799 573.791822,199.405204 568.438662,193.717472 C563.085502,188.02974 555.724907,184.01487 546.69145,182.007435 C537.657993,180 525.947955,178.66171 511.561338,178.66171 L345.27881,178.66171 C331.226766,178.66171 319.851301,179.665428 310.817844,182.007435 C301.784387,184.349442 294.423792,188.02974 289.070632,193.717472 C283.717472,199.405204 279.702602,206.765799 277.695167,215.799257 C275.35316,224.832714 274.349442,236.208178 274.349442,249.591078 L274.349442,311.486989 Z" id="Shape"></path>
                    <path d="M1250.63197,3.34572491 C1260.66914,3.34572491 1265.68773,8.02973978 1265.68773,17.732342 L1265.68773,81.6356877 C1265.68773,91.6728625 1260.66914,96.6914498 1250.63197,96.6914498 L1045.87361,96.6914498 L1045.87361,444.981413 C1045.87361,454.684015 1041.18959,459.36803 1031.48699,459.36803 L960.557621,459.36803 C950.855019,459.36803 946.171004,454.684015 946.171004,444.981413 L946.171004,96.3568773 L741.412639,96.3568773 C731.375465,96.3568773 726.356877,91.33829 726.356877,81.3011152 L726.356877,17.3977695 C726.356877,7.69516729 731.375465,3.01115242 741.412639,3.01115242 L1250.63197,3.01115242 L1250.63197,3.34572491 Z" id="Shape"></path>
                    <path d="M1640.40892,101.710037 C1662.49071,101.710037 1680.89219,103.3829 1695.61338,107.063197 C1710.33457,110.743494 1721.71004,116.765799 1730.07435,125.464684 C1738.43866,133.828996 1744.46097,144.869888 1748.14126,158.587361 C1751.48699,172.304833 1753.49442,189.033457 1753.49442,208.438662 L1753.49442,270.334572 C1753.49442,284.386617 1750.48327,293.754647 1744.46097,299.442379 C1738.43866,304.795539 1729.07063,307.472119 1716.35688,307.472119 L1387.13755,307.472119 L1387.13755,323.197026 C1387.13755,343.605948 1392.15613,358.327138 1401.85874,367.360595 C1411.56134,376.394052 1430.63197,381.078067 1458.73606,381.078067 L1730.40892,381.078067 C1738.10409,381.078067 1742.11896,385.092937 1742.11896,392.788104 L1742.11896,447.657993 C1742.11896,455.35316 1738.10409,459.36803 1730.40892,459.36803 L1449.36803,459.36803 C1419.92565,459.36803 1395.16729,457.026022 1375.42751,452.342007 C1355.68773,447.657993 1339.96283,439.962825 1327.91822,429.256506 C1315.87361,418.550186 1307.50929,404.832714 1302.15613,388.104089 C1296.80297,371.375465 1294.46097,351.301115 1294.46097,327.881041 L1294.46097,234.200743 C1294.46097,210.780669 1297.13755,190.70632 1302.15613,173.977695 C1307.50929,157.249071 1315.87361,143.531599 1327.91822,132.825279 C1339.96283,122.118959 1355.68773,114.423792 1375.42751,109.405204 C1395.16729,104.386617 1419.92565,102.04461 1449.36803,102.04461 L1640.40892,102.04461 L1640.40892,101.710037 Z M1386.80297,249.591078 L1650.78067,249.591078 C1658.14126,249.591078 1661.82156,245.910781 1661.82156,238.550186 L1661.82156,211.115242 C1661.82156,197.732342 1659.14498,188.02974 1653.45725,182.342007 C1647.76952,176.654275 1637.39777,173.977695 1622.34201,173.977695 L1458.73606,173.977695 C1430.63197,173.977695 1411.56134,178.327138 1401.85874,187.360595 C1392.15613,196.394052 1387.13755,211.115242 1387.13755,231.858736 L1387.13755,249.591078 L1386.80297,249.591078 Z" id="Shape"></path>
                    <path d="M2332.63941,3.34572491 C2338.66171,3.34572491 2342.00743,5.35315985 2342.67658,9.70260223 C2343.34572,13.7174721 2342.00743,17.3977695 2338.99628,20.4089219 L2138.92193,223.159851 L2348.02974,442.639405 C2351.04089,445.650558 2352.37918,449.330855 2351.71004,453.345725 C2351.04089,457.360595 2347.69517,459.702602 2341.67286,459.702602 L2252.34201,459.702602 C2246.98885,459.702602 2242.97398,459.033457 2239.96283,457.695167 C2236.95167,456.356877 2233.94052,454.01487 2231.59851,450.669145 L2070.66914,282.04461 L1909.07063,450.669145 C1906.05948,454.01487 1903.04833,456.69145 1900.37175,457.695167 C1897.69517,459.033457 1893.34572,459.702602 1887.65799,459.702602 L1803.01115,459.702602 C1797.32342,459.702602 1794.31227,457.695167 1793.64312,453.345725 C1792.97398,449.330855 1794.31227,445.650558 1797.32342,442.639405 L2011.78439,219.814126 L1818.40149,20.4089219 C1815.72491,17.3977695 1814.72119,13.7174721 1815.05576,9.70260223 C1815.39033,5.68773234 1818.73606,3.34572491 1824.75836,3.34572491 L1914.08922,3.34572491 C1919.44238,3.34572491 1923.45725,4.01486989 1926.4684,5.68773234 C1929.47955,7.0260223 1932.49071,9.36802974 1934.83271,12.3791822 L2077.02602,163.605948 L2227.58364,12.3791822 C2230.26022,9.36802974 2232.9368,7.0260223 2235.94796,5.68773234 C2238.95911,4.01486989 2242.97398,3.34572491 2248.32714,3.34572491 L2332.63941,3.34572491 Z" id="Shape"></path>
                </g>
                <g id="Group" transform="translate(572.118959, 0.000000)">
                    <polygon id="Shape" points="635.687732 0 635.687732 237.546468 843.122677 118.939817"></polygon>
                    <polygon id="Shape" opacity="0.9" points="843.122677 117.100372 843.122677 354.64684 1050.55762 235.707024"></polygon>
                    <polygon id="Shape" opacity="0.8" points="635.687732 237.546468 635.687732 475.092937 843.122677 356.486285"></polygon>
                    <polygon id="Shape" opacity="0.8" points="843.122677 357.992565 843.122677 595.539033 1050.55762 476.599217"></polygon>
                    <polygon id="Shape" opacity="0.8" points="635.687732 475.092937 635.687732 712.639405 843.122677 594.032753"></polygon>
                    <polygon id="Shape" points="843.122677 595.539033 843.122677 833.085502 1050.55762 714.145685"></polygon>
                    <polygon id="Shape" opacity="0.5" points="100.371747 230.855019 100.371747 468.401487 307.806691 349.46167"></polygon>
                    <polygon id="Shape" opacity="0.2" points="361.33829 317.843866 361.33829 555.390335 568.773234 436.450518"></polygon>
                    <polygon id="Shape" opacity="0.4" points="207.434944 468.401487 207.434944 705.947955 414.869888 587.008139"></polygon>
                    <polygon id="Shape" opacity="0.9" points="344.609665 649.070632 344.609665 886.6171 552.04461 767.677284"></polygon>
                    <polygon id="Shape" opacity="0.7" points="632.342007 752.788104 632.342007 990.334572 839.776952 871.394756"></polygon>
                    <polygon id="Shape" opacity="0.9" points="394.795539 200.743494 394.795539 438.289963 602.230483 319.683311"></polygon>
                    <polygon id="Shape" opacity="0.8" points="635.687732 0 635.687732 237.546468 428.252788 118.939817"></polygon>
                    <polygon id="Shape" opacity="0.7" points="394.795539 100.371747 394.795539 337.918216 187.360595 218.978399"></polygon>
                    <polygon id="Shape" opacity="0.6" points="602.230483 217.472119 602.230483 455.018587 394.795539 336.078771"></polygon>
                    <polygon id="Shape" points="361.33829 317.843866 361.33829 555.390335 153.903346 436.450518"></polygon>
                    <polygon id="Shape" opacity="0.6" points="635.687732 475.092937 635.687732 712.639405 428.252788 594.032753"></polygon>
                    <polygon id="Shape" opacity="0.65" points="207.434944 531.97026 207.434944 769.516729 0 650.576912"></polygon>
                    <polygon id="Shape" points="1050.55762 237.546468 1050.55762 475.092937 843.122677 356.486285"></polygon>
                    <polygon id="Shape" opacity="0.95" points="843.122677 357.992565 843.122677 595.539033 635.687732 476.599217"></polygon>
                    <polygon id="Shape" opacity="0.9" points="1050.55762 475.092937 1050.55762 712.639405 843.122677 594.032753"></polygon>
                    <polygon id="Shape" opacity="0.7" points="843.122677 595.539033 843.122677 833.085502 635.687732 714.145685"></polygon>
                    <polygon id="Shape" opacity="0.4" points="588.847584 695.910781 588.847584 933.457249 381.412639 814.850597"></polygon>
                    <polygon id="Shape" points="843.122677 117.100372 843.122677 354.64684 635.687732 235.707024"></polygon>
                </g>
            </g>
        </g>
    </g>
</svg>