<?xml version="1.0" encoding="UTF-8"?>
<svg width="2346px" height="1796px" viewBox="0 0 2346 1796" version="1.1" xmlns="http://www.w3.org/2000/svg" xmlns:xlink="http://www.w3.org/1999/xlink">
    <!-- Generator: Sketch 55.2 (78181) - https://sketchapp.com -->
    <title>Group 2</title>
    <desc>Created with Sketch.</desc>
    <g id="Page-1" stroke="none" stroke-width="1" fill="none" fill-rule="evenodd">
        <g id="Artboard" transform="translate(-2721.000000, -2335.000000)" fill="#000000" fill-rule="nonzero">
            <g id="Group-2" transform="translate(2719.000000, 2333.000000)">
                <g id="Group" transform="translate(0.000000, 1339.146568)">
                    <path d="M87.8293135,3.33951763 C97.5139147,3.33951763 102.189239,8.0148423 102.189239,17.6994434 L102.189239,444.155844 C102.189239,453.840445 97.5139147,458.51577 87.8293135,458.51577 L17.6994434,458.51577 C7.68089054,458.51577 2.6716141,453.840445 2.6716141,444.155844 L2.6716141,17.3654917 C2.6716141,7.68089054 7.68089054,3.00556586 17.6994434,3.00556586 L87.8293135,3.00556586 L87.8293135,3.33951763 Z" id="Shape"></path>
                    <path d="M519.962894,101.521336 C549.016698,101.521336 573.395176,103.858998 593.432282,108.868275 C613.469388,113.877551 629.165121,121.558442 641.187384,132.244898 C653.209647,142.931354 661.558442,156.623377 666.90167,173.320965 C672.244898,190.018553 674.58256,210.055659 674.58256,233.432282 L674.58256,326.938776 C674.58256,350.315399 671.910946,370.352505 666.90167,387.050093 C661.558442,403.747681 653.209647,417.439703 641.187384,428.12616 C629.165121,438.812616 613.135436,446.493506 593.432282,451.168831 C573.395176,455.844156 549.016698,458.181818 519.962894,458.181818 L335.955473,458.181818 C306.567718,458.181818 281.855288,455.844156 262.152134,451.168831 C242.44898,446.493506 226.419295,438.812616 214.730983,428.12616 C202.70872,417.439703 194.359926,403.747681 189.016698,387.050093 C184.007421,370.352505 181.335807,350.315399 181.335807,326.938776 L181.335807,233.432282 C181.335807,210.055659 184.007421,190.018553 189.016698,173.320965 C194.359926,156.623377 202.70872,142.931354 214.730983,132.244898 C226.753247,121.558442 242.44898,113.877551 262.152134,108.868275 C281.855288,103.858998 306.567718,101.521336 335.955473,101.521336 L519.962894,101.521336 Z M273.840445,310.909091 C273.840445,324.935065 274.842301,336.289425 277.179963,345.306122 C279.517625,354.32282 283.191095,361.669759 288.534323,367.012987 C293.877551,372.356215 301.22449,376.363636 310.241187,378.701299 C319.257885,381.038961 330.946197,382.374768 344.638219,382.374768 L510.612245,382.374768 C524.972171,382.374768 536.660482,381.372913 545.67718,378.701299 C554.693878,376.363636 562.040816,372.356215 567.384045,367.012987 C572.727273,361.669759 576.734694,354.32282 578.738404,345.306122 C580.742115,336.289425 582.077922,324.601113 582.077922,310.909091 L582.077922,249.128015 C582.077922,235.769944 581.076067,224.415584 578.738404,215.398887 C576.400742,206.382189 572.727273,199.03525 567.384045,193.358071 C562.040816,187.680891 554.693878,183.673469 545.67718,181.669759 C536.660482,179.666048 524.972171,178.330241 510.612245,178.330241 L344.638219,178.330241 C330.612245,178.330241 319.257885,179.332096 310.241187,181.669759 C301.22449,184.007421 293.877551,187.680891 288.534323,193.358071 C283.191095,199.03525 279.183673,206.382189 277.179963,215.398887 C274.842301,224.415584 273.840445,235.769944 273.840445,249.128015 L273.840445,310.909091 Z" id="Shape"></path>
                    <path d="M1248.31169,3.33951763 C1258.33024,3.33951763 1263.33952,8.0148423 1263.33952,17.6994434 L1263.33952,81.4842301 C1263.33952,91.5027829 1258.33024,96.5120594 1248.31169,96.5120594 L1043.93321,96.5120594 L1043.93321,444.155844 C1043.93321,453.840445 1039.25788,458.51577 1029.57328,458.51577 L958.77551,458.51577 C949.090909,458.51577 944.415584,453.840445 944.415584,444.155844 L944.415584,96.1781076 L740.037106,96.1781076 C730.018553,96.1781076 725.009276,91.1688312 725.009276,81.1502783 L725.009276,17.3654917 C725.009276,7.68089054 730.018553,3.00556586 740.037106,3.00556586 L1248.31169,3.00556586 L1248.31169,3.33951763 Z" id="Shape"></path>
                    <path d="M1637.36549,101.521336 C1659.40631,101.521336 1677.77365,103.191095 1692.46753,106.864564 C1707.16141,110.538033 1718.51577,116.549165 1726.86456,125.231911 C1735.21336,133.580705 1741.22449,144.601113 1744.89796,158.293135 C1748.23748,171.985158 1750.24119,188.682746 1750.24119,208.051948 L1750.24119,269.833024 C1750.24119,283.858998 1747.23562,293.209647 1741.22449,298.886827 C1735.21336,304.230056 1725.86271,306.90167 1713.17254,306.90167 L1384.56401,306.90167 L1384.56401,322.597403 C1384.56401,342.96846 1389.57328,357.662338 1399.25788,366.679035 C1408.94249,375.695733 1427.97774,380.371058 1456.02968,380.371058 L1727.19852,380.371058 C1734.87941,380.371058 1738.88683,384.378479 1738.88683,392.059369 L1738.88683,446.827458 C1738.88683,454.508349 1734.87941,458.51577 1727.19852,458.51577 L1446.67904,458.51577 C1417.29128,458.51577 1392.57885,456.178108 1372.8757,451.502783 C1353.17254,446.827458 1337.47681,439.146568 1325.45455,428.460111 C1313.43228,417.773655 1305.08349,404.081633 1299.74026,387.384045 C1294.39703,370.686456 1292.05937,350.649351 1292.05937,327.272727 L1292.05937,233.766234 C1292.05937,210.38961 1294.73098,190.352505 1299.74026,173.654917 C1305.08349,156.957328 1313.43228,143.265306 1325.45455,132.57885 C1337.47681,121.892393 1353.17254,114.211503 1372.8757,109.202226 C1392.57885,104.19295 1417.29128,101.855288 1446.67904,101.855288 L1637.36549,101.855288 L1637.36549,101.521336 Z M1384.23006,249.128015 L1647.718,249.128015 C1655.06494,249.128015 1658.7384,245.454545 1658.7384,238.107607 L1658.7384,210.723562 C1658.7384,197.365492 1656.06679,187.680891 1650.38961,182.003711 C1644.71243,176.326531 1634.35993,173.654917 1619.3321,173.654917 L1456.02968,173.654917 C1427.97774,173.654917 1408.94249,177.996289 1399.25788,187.012987 C1389.57328,196.029685 1384.56401,210.723562 1384.56401,231.428571 L1384.56401,249.128015 L1384.23006,249.128015 Z" id="Shape"></path>
                    <path d="M2328.31169,3.33951763 C2334.32282,3.33951763 2337.66234,5.3432282 2338.33024,9.68460111 C2338.99814,13.6920223 2337.66234,17.3654917 2334.65677,20.3710575 L2134.95362,222.745826 L2343.67347,441.818182 C2346.67904,444.823748 2348.01484,448.497217 2347.34694,452.504638 C2346.67904,456.512059 2343.33952,458.849722 2337.32839,458.849722 L2248.16327,458.849722 C2242.82004,458.849722 2238.81262,458.181818 2235.80705,456.846011 C2232.80148,455.510204 2229.79592,453.172542 2227.45826,449.833024 L2066.82746,281.521336 L1905.52876,449.833024 C1902.52319,453.172542 1899.51763,455.844156 1896.84601,456.846011 C1894.1744,458.181818 1889.83302,458.849722 1884.15584,458.849722 L1799.66605,458.849722 C1793.98887,458.849722 1790.9833,456.846011 1790.3154,452.504638 C1789.6475,448.497217 1790.9833,444.823748 1793.98887,441.818182 L2008.05195,219.406308 L1815.02783,20.3710575 C1812.35622,17.3654917 1811.35436,13.6920223 1811.68831,9.68460111 C1812.02226,5.67717996 1815.36178,3.33951763 1821.37291,3.33951763 L1910.53803,3.33951763 C1915.88126,3.33951763 1919.88868,4.00742115 1922.89425,5.67717996 C1925.89981,7.01298701 1928.90538,9.35064935 1931.24304,12.3562152 L2073.17254,163.302412 L2223.45083,12.3562152 C2226.12245,9.35064935 2228.79406,7.01298701 2231.79963,5.67717996 C2234.80519,4.00742115 2238.81262,3.33951763 2244.15584,3.33951763 L2328.31169,3.33951763 Z" id="Shape"></path>
                </g>
                <g id="Group" transform="translate(571.057514, 0.000000)">
                    <polygon id="Shape" points="633.840445 2.33766234 633.840445 240.445269 840.556586 121.558442"></polygon>
                    <polygon id="Shape" opacity="0.9" points="840.556586 121.558442 840.556586 359.666048 1047.27273 240.445269"></polygon>
                    <polygon id="Shape" opacity="0.8" points="633.840445 240.445269 633.840445 478.552876 840.556586 359.666048"></polygon>
                    <polygon id="Shape" opacity="0.8" points="840.556586 359.666048 840.556586 597.773655 1047.27273 478.552876"></polygon>
                    <polygon id="Shape" opacity="0.8" points="633.840445 478.552876 633.840445 716.660482 840.556586 597.773655"></polygon>
                    <polygon id="Shape" points="840.556586 597.773655 840.556586 835.881262 1047.27273 716.660482"></polygon>
                    <polygon id="Shape" opacity="0.5" points="99.5176252 232.430427 99.5176252 470.538033 306.233766 351.317254"></polygon>
                    <polygon id="Shape" opacity="0.2" points="360.333952 320.927644 360.333952 559.03525 566.716141 439.814471"></polygon>
                    <polygon id="Shape" opacity="0.4" points="207.050093 471.539889 207.050093 709.647495 413.766234 590.426716"></polygon>
                    <polygon id="Shape" opacity="0.9" points="343.302412 651.205937 343.302412 889.313544 549.684601 770.092764"></polygon>
                    <polygon id="Shape" opacity="0.7" points="632.170686 753.729128 632.170686 991.836735 838.552876 872.615955"></polygon>
                    <polygon id="Shape" opacity="0.9" points="394.730983 203.376623 394.730983 441.48423 601.113173 322.597403"></polygon>
                    <polygon id="Shape" opacity="0.8" points="633.840445 2.33766234 633.840445 240.445269 427.124304 121.558442"></polygon>
                    <polygon id="Shape" opacity="0.7" points="394.730983 103.525046 394.730983 341.632653 188.014842 222.411874"></polygon>
                    <polygon id="Shape" opacity="0.6" points="601.447124 221.410019 601.447124 459.517625 394.730983 340.296846"></polygon>
                    <polygon id="Shape" points="359.332096 320.927644 359.332096 559.03525 152.615955 439.814471"></polygon>
                    <polygon id="Shape" opacity="0.6" points="633.840445 478.552876 633.840445 716.660482 427.458256 597.773655"></polygon>
                    <polygon id="Shape" opacity="0.65" points="207.050093 533.988868 207.050093 772.096475 0.333951763 652.875696"></polygon>
                    <polygon id="Shape" points="1047.27273 240.445269 1047.27273 478.552876 840.556586 359.666048"></polygon>
                    <polygon id="Shape" opacity="0.95" points="840.556586 359.666048 840.556586 597.773655 633.840445 478.552876"></polygon>
                    <polygon id="Shape" opacity="0.9" points="1047.27273 478.552876 1047.27273 716.660482 840.556586 597.773655"></polygon>
                    <polygon id="Shape" opacity="0.7" points="840.556586 597.773655 840.556586 835.881262 633.840445 716.660482"></polygon>
                    <polygon id="Shape" opacity="0.4" points="588.089054 696.957328 588.089054 935.064935 381.372913 816.178108"></polygon>
                    <polygon id="Shape" points="840.556586 121.558442 840.556586 359.666048 633.840445 240.445269"></polygon>
                </g>
            </g>
        </g>
    </g>
</svg>