<?xml version="1.0" encoding="UTF-8"?>
<svg width="1024px" height="1024px" viewBox="0 0 1024 1024" version="1.1" xmlns="http://www.w3.org/2000/svg" xmlns:xlink="http://www.w3.org/1999/xlink">
    <!-- Generator: Sketch 55.2 (78181) - https://sketchapp.com -->
    <title>Artboard</title>
    <desc>Created with Sketch.</desc>
    <g id="Artboard" stroke="none" stroke-width="1" fill="none" fill-rule="evenodd">
        <g id="Group" transform="translate(73.000000, 122.000000)" fill="#FFFFFF" fill-rule="nonzero">
            <polygon id="Shape" points="498.464646 0.525252525 498.464646 187.777778 661.030303 94.2828283"></polygon>
            <polygon id="Shape" opacity="0.9" points="661.030303 94.2828283 661.030303 281.535354 823.59596 187.777778"></polygon>
            <polygon id="Shape" opacity="0.8" points="498.464646 187.777778 498.464646 375.030303 661.030303 281.535354"></polygon>
            <polygon id="Shape" opacity="0.8" points="661.030303 281.535354 661.030303 468.787879 823.59596 375.030303"></polygon>
            <polygon id="Shape" opacity="0.8" points="498.464646 375.030303 498.464646 562.282828 661.030303 468.787879"></polygon>
            <polygon id="Shape" points="661.030303 468.787879 661.030303 656.040404 823.59596 562.282828"></polygon>
            <polygon id="Shape" opacity="0.5" points="78.2626263 181.474747 78.2626263 368.727273 240.828283 274.969697"></polygon>
            <polygon id="Shape" opacity="0.2" points="283.373737 251.070707 283.373737 438.323232 445.676768 344.828283"></polygon>
            <polygon id="Shape" opacity="0.4" points="162.828283 369.515152 162.828283 556.767677 325.393939 463.010101"></polygon>
            <polygon id="Shape" opacity="0.9" points="269.979798 510.808081 269.979798 698.060606 432.282828 604.30303"></polygon>
            <polygon id="Shape" opacity="0.7" points="497.151515 591.434343 497.151515 778.686869 659.454545 684.929293"></polygon>
            <polygon id="Shape" opacity="0.9" points="310.424242 158.626263 310.424242 345.878788 472.727273 252.383838"></polygon>
            <polygon id="Shape" opacity="0.8" points="498.464646 0.525252525 498.464646 187.777778 335.89899 94.2828283"></polygon>
            <polygon id="Shape" opacity="0.7" points="310.424242 80.1010101 310.424242 267.353535 147.858586 173.59596"></polygon>
            <polygon id="Shape" opacity="0.6" points="472.989899 172.808081 472.989899 360.060606 310.424242 266.30303"></polygon>
            <polygon id="Shape" points="282.585859 251.070707 282.585859 438.323232 120.020202 344.828283"></polygon>
            <polygon id="Shape" opacity="0.6" points="498.464646 375.030303 498.464646 562.282828 336.161616 468.787879"></polygon>
            <polygon id="Shape" opacity="0.65" points="162.828283 418.626263 162.828283 605.878788 0.262626263 512.121212"></polygon>
            <polygon id="Shape" points="823.59596 187.777778 823.59596 375.030303 661.030303 281.535354"></polygon>
            <polygon id="Shape" opacity="0.95" points="661.030303 281.535354 661.030303 468.787879 498.464646 375.030303"></polygon>
            <polygon id="Shape" opacity="0.9" points="823.59596 375.030303 823.59596 562.282828 661.030303 468.787879"></polygon>
            <polygon id="Shape" opacity="0.7" points="661.030303 468.787879 661.030303 656.040404 498.464646 562.282828"></polygon>
            <polygon id="Shape" opacity="0.4" points="462.484848 546.787879 462.484848 734.040404 299.919192 640.545455"></polygon>
            <polygon id="Shape" points="661.030303 94.2828283 661.030303 281.535354 498.464646 187.777778"></polygon>
        </g>
    </g>
</svg>