<?xml version="1.0" encoding="UTF-8"?>
<svg width="335px" height="316px" viewBox="0 0 335 316" version="1.1" xmlns="http://www.w3.org/2000/svg" xmlns:xlink="http://www.w3.org/1999/xlink">
    <!-- Generator: Sketch 55.2 (78181) - https://sketchapp.com -->
    <title>Group 2</title>
    <desc>Created with Sketch.</desc>
    <g id="Page-1" stroke="none" stroke-width="1" fill="none" fill-rule="evenodd">
        <g id="Artboard" transform="translate(-4085.000000, -966.000000)" fill="#000000" fill-rule="nonzero">
            <g id="Group-2" transform="translate(4085.000000, 966.000000)">
                <g id="Group" transform="translate(0.011074, 0.000000)">
                    <polygon id="Shape" points="202.662256 0.0266599173 202.662256 76.0607441 268.75706 38.0970219"></polygon>
                    <polygon id="Shape" opacity="0.9" points="268.75706 38.0970219 268.75706 114.131106 334.851863 76.0607441"></polygon>
                    <polygon id="Shape" opacity="0.8" points="202.662256 76.0607441 202.662256 152.094828 268.75706 114.131106"></polygon>
                    <polygon id="Shape" opacity="0.8" points="268.75706 114.131106 268.75706 190.16519 334.851863 152.094828"></polygon>
                    <polygon id="Shape" opacity="0.8" points="202.662256 152.094828 202.662256 228.128913 268.75706 190.16519"></polygon>
                    <polygon id="Shape" points="268.75706 190.16519 268.75706 266.199274 334.851863 228.128913"></polygon>
                    <polygon id="Shape" opacity="0.5" points="31.8194691 73.5013921 31.8194691 149.535476 97.9142724 111.465114"></polygon>
                    <polygon id="Shape" opacity="0.2" points="115.212105 101.760904 115.212105 177.794989 181.200131 139.724627"></polygon>
                    <polygon id="Shape" opacity="0.4" points="66.2015801 149.855395 66.2015801 225.889479 132.296383 187.819118"></polygon>
                    <polygon id="Shape" opacity="0.9" points="109.766491 207.227537 109.766491 283.261622 175.754517 245.19126"></polygon>
                    <polygon id="Shape" opacity="0.7" points="202.128373 239.965916 202.128373 316 268.116399 277.929638"></polygon>
                    <polygon id="Shape" opacity="0.9" points="126.210109 64.2237408 126.210109 140.257825 192.198136 102.294103"></polygon>
                    <polygon id="Shape" opacity="0.8" points="202.662256 0.0266599173 202.662256 76.0607441 136.567453 38.0970219"></polygon>
                    <polygon id="Shape" opacity="0.7" points="126.210109 32.3384797 126.210109 108.372564 60.1153058 70.302202"></polygon>
                    <polygon id="Shape" opacity="0.6" points="192.304912 69.982283 192.304912 146.016367 126.210109 107.946005"></polygon>
                    <polygon id="Shape" points="114.891774 101.760904 114.891774 177.794989 48.7969711 139.724627"></polygon>
                    <polygon id="Shape" opacity="0.6" points="202.662256 152.094828 202.662256 228.128913 136.67423 190.16519"></polygon>
                    <polygon id="Shape" opacity="0.65" points="66.2015801 169.797013 66.2015801 245.831098 0.106776742 207.760736"></polygon>
                    <polygon id="Shape" points="334.851863 76.0607441 334.851863 152.094828 268.75706 114.131106"></polygon>
                    <polygon id="Shape" opacity="0.95" points="268.75706 114.131106 268.75706 190.16519 202.662256 152.094828"></polygon>
                    <polygon id="Shape" opacity="0.9" points="334.851863 152.094828 334.851863 228.128913 268.75706 190.16519"></polygon>
                    <polygon id="Shape" opacity="0.7" points="268.75706 190.16519 268.75706 266.199274 202.662256 228.128913"></polygon>
                    <polygon id="Shape" opacity="0.4" points="188.033843 221.837172 188.033843 297.871256 121.939039 259.907534"></polygon>
                    <polygon id="Shape" points="268.75706 38.0970219 268.75706 114.131106 202.662256 76.0607441"></polygon>
                </g>
            </g>
        </g>
    </g>
</svg>