<?xml version="1.0" encoding="UTF-8"?>
<svg width="377px" height="377px" viewBox="0 0 377 377" version="1.1" xmlns="http://www.w3.org/2000/svg" xmlns:xlink="http://www.w3.org/1999/xlink">
    <!-- Generator: Sketch 55.2 (78181) - https://sketchapp.com -->
    <title>Group 6</title>
    <desc>Created with Sketch.</desc>
    <g id="Page-1" stroke="none" stroke-width="1" fill="none" fill-rule="evenodd">
        <g id="Artboard" transform="translate(-4049.000000, -2073.000000)">
            <g id="Group-6" transform="translate(4049.000000, 2073.000000)">
                <circle id="Oval" fill="#FFFFFF" cx="188.5" cy="188.5" r="188.5"></circle>
                <g id="Group-2" transform="translate(62.000000, 87.000000)" fill="#000000" fill-rule="nonzero">
                    <g id="Group" transform="translate(0.177215, 0.000000)">
                        <polygon id="Shape" points="135.398726 0.0178014005 135.398726 50.7873956 179.556688 25.4382013"></polygon>
                        <polygon id="Shape" opacity="0.9" points="179.556688 25.4382013 179.556688 76.2077955 223.71465 50.7873956"></polygon>
                        <polygon id="Shape" opacity="0.8" points="135.398726 50.7873956 135.398726 101.55699 179.556688 76.2077955"></polygon>
                        <polygon id="Shape" opacity="0.8" points="179.556688 76.2077955 179.556688 126.97739 223.71465 101.55699"></polygon>
                        <polygon id="Shape" opacity="0.8" points="135.398726 101.55699 135.398726 152.326584 179.556688 126.97739"></polygon>
                        <polygon id="Shape" points="179.556688 126.97739 179.556688 177.746984 223.71465 152.326584"></polygon>
                        <polygon id="Shape" opacity="0.5" points="21.2585987 49.0784611 21.2585987 99.8480553 65.4165605 74.4276554"></polygon>
                        <polygon id="Shape" opacity="0.2" points="76.9732484 67.9479457 76.9732484 118.71754 121.059873 93.29714"></polygon>
                        <polygon id="Shape" opacity="0.4" points="44.2292994 100.061672 44.2292994 150.831266 88.3872611 125.410866"></polygon>
                        <polygon id="Shape" opacity="0.9" points="73.3350318 138.370286 73.3350318 189.13988 117.421656 163.71948"></polygon>
                        <polygon id="Shape" opacity="0.7" points="135.042038 160.230406 135.042038 211 179.128662 185.5796"></polygon>
                        <polygon id="Shape" opacity="0.9" points="84.3210191 42.8835738 84.3210191 93.653168 128.407643 68.3039737"></polygon>
                        <polygon id="Shape" opacity="0.8" points="135.398726 0.0178014005 135.398726 50.7873956 91.2407643 25.4382013"></polygon>
                        <polygon id="Shape" opacity="0.7" points="84.3210191 21.5930988 84.3210191 72.362693 40.1630573 46.9422931"></polygon>
                        <polygon id="Shape" opacity="0.6" points="128.478981 46.7286763 128.478981 97.4982705 84.3210191 72.0778706"></polygon>
                        <polygon id="Shape" points="76.7592357 67.9479457 76.7592357 118.71754 32.6012739 93.29714"></polygon>
                        <polygon id="Shape" opacity="0.6" points="135.398726 101.55699 135.398726 152.326584 91.3121019 126.97739"></polygon>
                        <polygon id="Shape" opacity="0.65" points="44.2292994 113.37712 44.2292994 164.146714 0.0713375796 138.726314"></polygon>
                        <polygon id="Shape" points="223.71465 50.7873956 223.71465 101.55699 179.556688 76.2077955"></polygon>
                        <polygon id="Shape" opacity="0.95" points="179.556688 76.2077955 179.556688 126.97739 135.398726 101.55699"></polygon>
                        <polygon id="Shape" opacity="0.9" points="223.71465 101.55699 223.71465 152.326584 179.556688 126.97739"></polygon>
                        <polygon id="Shape" opacity="0.7" points="179.556688 126.97739 179.556688 177.746984 135.398726 152.326584"></polygon>
                        <polygon id="Shape" opacity="0.4" points="125.625478 148.125453 125.625478 198.895048 81.4675159 173.545853"></polygon>
                        <polygon id="Shape" points="179.556688 25.4382013 179.556688 76.2077955 135.398726 50.7873956"></polygon>
                    </g>
                </g>
            </g>
        </g>
    </g>
</svg>